<svg width="30" height="43" viewBox="0 0 30 43" fill="none" xmlns="http://www.w3.org/2000/svg">
<path d="M23.6431 0H6.35688C2.89963 0 0 2.79948 0 6.38281V36.6172C0 40.0885 2.7881 43 6.35688 43H23.6431C27.1004 43 30 40.0885 30 36.6172V6.38281C29.8885 2.79948 27.1004 0 23.6431 0ZM6.35688 2.91146H23.6431C25.539 2.91146 27.1004 4.47916 27.1004 6.38281V30.6823H2.89963V6.38281C2.89963 4.47916 4.46097 2.91146 6.35688 2.91146ZM23.6431 40.0885H6.35688C4.46097 40.0885 2.89963 38.5208 2.89963 36.6172V33.4818H26.9888V36.6172C26.9888 38.5208 25.4275 40.0885 23.6431 40.0885Z" fill="#006EF5"/>
</svg>
