<svg width="47" height="37" viewBox="0 0 47 37" fill="none" xmlns="http://www.w3.org/2000/svg">
<path d="M40.1974 0H6.80263C3.09211 0 0 3.09365 0 6.80602V30.194C0 33.9064 3.09211 37 6.80263 37H40.1974C43.9079 37 47 33.9064 47 30.194V6.80602C47 3.09365 43.9079 0 40.1974 0ZM40.1974 3.21738C40.4447 3.21738 40.6921 3.21739 41.0632 3.34113L26.9632 19.3043C26.0974 20.2943 24.8605 20.7893 23.5 20.7893C22.1395 20.7893 20.9026 20.1706 20.0368 19.3043L5.93684 3.34113C6.18421 3.34113 6.43158 3.21738 6.80263 3.21738H40.1974ZM43.7842 30.194C43.7842 32.1739 42.1763 33.7826 40.1974 33.7826H6.80263C4.82368 33.7826 3.21579 32.1739 3.21579 30.194V6.80602C3.21579 6.31104 3.33947 5.81605 3.46316 5.44481L17.5632 21.5318C19.0474 23.2642 21.15 24.1304 23.3763 24.1304C25.6026 24.1304 27.7053 23.1405 29.1895 21.5318L43.2895 5.44481C43.4132 5.81605 43.5368 6.31104 43.5368 6.80602V30.194H43.7842Z" fill="#8F39CE"/>
</svg>
