<svg width="31" height="42" viewBox="0 0 31 42" fill="none" xmlns="http://www.w3.org/2000/svg">
<path d="M15.5 11C13.025 11 11 13.25 11 16C11 18.75 13.025 21 15.5 21C17.975 21 20 18.75 20 16C20 13.125 17.975 11 15.5 11Z" fill="#FF0000"/>
<path d="M15.5 0C6.9403 0 0 7.26748 0 16.2307C0 23.8616 11.2202 37.6698 14.5746 41.5458C15.0373 42.1514 15.9627 42.1514 16.4254 41.5458C19.7799 37.6698 31 23.8616 31 16.2307C31 7.26748 24.0597 0 15.5 0ZM15.5 23.3771C11.3358 23.3771 7.86567 19.7433 7.86567 15.3828C7.86567 11.0223 11.3358 7.38862 15.5 7.38862C19.6642 7.38862 23.1343 11.0223 23.1343 15.3828C23.1343 19.8644 19.6642 23.3771 15.5 23.3771Z" fill="#FF0000"/>
</svg>
